<svg width="20" height="19" viewBox="0 0 20 19" fill="none" xmlns="http://www.w3.org/2000/svg">
<path d="M19.4292 9.65501C19.4292 4.5463 15.2877 0.404785 10.179 0.404785C5.07025 0.404785 0.928741 4.5463 0.928741 9.65501C0.928741 13.993 3.91546 17.6332 7.94448 18.6329V12.4819H6.03709V9.65501H7.94448V8.43694C7.94448 5.28854 9.36939 3.82922 12.4604 3.82922C13.0465 3.82922 14.0578 3.94429 14.4714 4.059V6.62131C14.2531 6.59837 13.8739 6.5869 13.4029 6.5869C11.8862 6.5869 11.3001 7.16152 11.3001 8.65525V9.65501H14.3216L13.8025 12.4819H11.3001V18.8375C15.8804 18.2844 19.4296 14.3845 19.4296 9.65501H19.4292Z" fill="#0866FF"/>
</svg>
