<svg width="21" height="19" viewBox="0 0 21 19" fill="none" xmlns="http://www.w3.org/2000/svg">
<g clip-path="url(#clip0_26_152)">
<path d="M18.7154 0.404785H2.19537C1.81592 0.404785 1.45201 0.548671 1.1837 0.804788C0.915385 1.0609 0.764648 1.40827 0.764648 1.77048V17.5395C0.764648 17.9018 0.915385 18.2491 1.1837 18.5052C1.45201 18.7614 1.81592 18.9052 2.19537 18.9052H18.7154C19.0948 18.9052 19.4587 18.7614 19.727 18.5052C19.9953 18.2491 20.1461 17.9018 20.1461 17.5395V1.77048C20.1461 1.40827 19.9953 1.0609 19.727 0.804788C19.4587 0.548671 19.0948 0.404785 18.7154 0.404785ZM6.54139 16.1649H3.62745V7.32961H6.54139V16.1649ZM5.0824 6.10524C4.75186 6.10346 4.42929 6.00826 4.15538 5.83165C3.88147 5.65505 3.6685 5.40494 3.54336 5.11291C3.41822 4.82088 3.38651 4.50001 3.45223 4.19079C3.51795 3.88157 3.67816 3.59787 3.91264 3.37548C4.14712 3.15309 4.44536 3.00199 4.76971 2.94124C5.09407 2.8805 5.43001 2.91283 5.73514 3.03415C6.04027 3.15548 6.3009 3.36036 6.48416 3.62295C6.66742 3.88554 6.76508 4.19406 6.76482 4.50957C6.76793 4.72081 6.72647 4.93049 6.64288 5.12611C6.5593 5.32172 6.43532 5.49927 6.27832 5.64817C6.12132 5.79708 5.93452 5.91429 5.72906 5.99281C5.5236 6.07134 5.30367 6.10957 5.0824 6.10524ZM17.2819 16.1726H14.3693V11.3458C14.3693 9.92224 13.7354 9.48286 12.9171 9.48286C12.053 9.48286 11.205 10.1047 11.205 11.3817V16.1726H8.2911V7.33603H11.0933V8.5604H11.131C11.4123 8.01695 12.3975 7.08808 13.901 7.08808C15.5268 7.08808 17.2833 8.00924 17.2833 10.7072L17.2819 16.1726Z" fill="#0A66C2"/>
</g>
<defs>
<clipPath id="clip0_26_152">
<rect width="19.3814" height="18.5005" fill="white" transform="translate(0.764648 0.404785)"/>
</clipPath>
</defs>
</svg>
